<svg width="65" height="43" viewBox="0 0 65 43" fill="none" xmlns="http://www.w3.org/2000/svg">
<path d="M11 1.248V3.96H4.016V8.256H9.368V10.92H4.016V18H0.656V1.248H11ZM16.7426 0.24V18H13.3826V0.24H16.7426ZM25.9663 18.216C24.6863 18.216 23.5343 17.936 22.5103 17.376C21.4863 16.8 20.6783 15.992 20.0863 14.952C19.5103 13.912 19.2223 12.712 19.2223 11.352C19.2223 9.992 19.5183 8.792 20.1103 7.752C20.7183 6.712 21.5423 5.912 22.5823 5.352C23.6223 4.776 24.7823 4.488 26.0623 4.488C27.3423 4.488 28.5023 4.776 29.5423 5.352C30.5823 5.912 31.3983 6.712 31.9903 7.752C32.5983 8.792 32.9023 9.992 32.9023 11.352C32.9023 12.712 32.5903 13.912 31.9662 14.952C31.3583 15.992 30.5263 16.8 29.4703 17.376C28.4303 17.936 27.2623 18.216 25.9663 18.216ZM25.9663 15.288C26.5743 15.288 27.1423 15.144 27.6703 14.856C28.2143 14.552 28.6463 14.104 28.9663 13.512C29.2863 12.92 29.4463 12.2 29.4463 11.352C29.4463 10.088 29.1103 9.12 28.4383 8.448C27.7823 7.76 26.9743 7.416 26.0143 7.416C25.0543 7.416 24.2463 7.76 23.5903 8.448C22.9503 9.12 22.6303 10.088 22.6303 11.352C22.6303 12.616 22.9423 13.592 23.5663 14.28C24.2063 14.952 25.0063 15.288 25.9663 15.288ZM38.7269 6.768C39.1589 6.064 39.7189 5.512 40.4069 5.112C41.1109 4.712 41.9109 4.512 42.8069 4.512V8.04H41.9189C40.8629 8.04 40.0629 8.288 39.5189 8.784C38.9909 9.28 38.7269 10.144 38.7269 11.376V18H35.3669V4.704H38.7269V6.768Z" fill="black"/>
<path d="M10.16 33.408C11.104 33.584 11.88 34.056 12.488 34.824C13.096 35.592 13.4 36.472 13.4 37.464C13.4 38.36 13.176 39.152 12.728 39.84C12.296 40.512 11.664 41.04 10.832 41.424C10 41.808 9.016 42 7.88 42H0.656V25.248H7.568C8.704 25.248 9.68 25.432 10.496 25.8C11.328 26.168 11.952 26.68 12.368 27.336C12.8 27.992 13.016 28.736 13.016 29.568C13.016 30.544 12.752 31.36 12.224 32.016C11.712 32.672 11.024 33.136 10.16 33.408ZM4.016 32.16H7.088C7.888 32.16 8.504 31.984 8.936 31.632C9.368 31.264 9.584 30.744 9.584 30.072C9.584 29.4 9.368 28.88 8.936 28.512C8.504 28.144 7.888 27.96 7.088 27.96H4.016V32.16ZM7.4 39.264C8.216 39.264 8.848 39.072 9.296 38.688C9.76 38.304 9.992 37.76 9.992 37.056C9.992 36.336 9.752 35.776 9.272 35.376C8.792 34.96 8.144 34.752 7.328 34.752H4.016V39.264H7.4ZM28.4379 35.064C28.4379 35.544 28.4059 35.976 28.3419 36.36H18.6219C18.7019 37.32 19.0379 38.072 19.6299 38.616C20.2219 39.16 20.9499 39.432 21.8139 39.432C23.0619 39.432 23.9499 38.896 24.4779 37.824H28.1019C27.7179 39.104 26.9819 40.16 25.8939 40.992C24.8059 41.808 23.4699 42.216 21.8859 42.216C20.6059 42.216 19.4539 41.936 18.4299 41.376C17.4219 40.8 16.6299 39.992 16.0539 38.952C15.4939 37.912 15.2139 36.712 15.2139 35.352C15.2139 33.976 15.4939 32.768 16.0539 31.728C16.6139 30.688 17.3979 29.888 18.4059 29.328C19.4139 28.768 20.5739 28.488 21.8859 28.488C23.1499 28.488 24.2779 28.76 25.2699 29.304C26.2779 29.848 27.0539 30.624 27.5979 31.632C28.1579 32.624 28.4379 33.768 28.4379 35.064ZM24.9579 34.104C24.9419 33.24 24.6299 32.552 24.0219 32.04C23.4139 31.512 22.6699 31.248 21.7899 31.248C20.9579 31.248 20.2539 31.504 19.6779 32.016C19.1179 32.512 18.7739 33.208 18.6459 34.104H24.9579ZM34.2504 24.24V42H30.8904V24.24H34.2504ZM40.9301 24.24V42H37.5701V24.24H40.9301ZM43.3857 35.304C43.3857 33.96 43.6497 32.768 44.1777 31.728C44.7218 30.688 45.4498 29.888 46.3618 29.328C47.2898 28.768 48.3218 28.488 49.4578 28.488C50.4498 28.488 51.3138 28.688 52.0498 29.088C52.8018 29.488 53.4018 29.992 53.8498 30.6V28.704H57.2338V42H53.8498V40.056C53.4178 40.68 52.8178 41.2 52.0498 41.616C51.2978 42.016 50.4258 42.216 49.4338 42.216C48.3138 42.216 47.2898 41.928 46.3618 41.352C45.4498 40.776 44.7218 39.968 44.1777 38.928C43.6497 37.872 43.3857 36.664 43.3857 35.304ZM53.8498 35.352C53.8498 34.536 53.6898 33.84 53.3698 33.264C53.0498 32.672 52.6178 32.224 52.0738 31.92C51.5298 31.6 50.9458 31.44 50.3218 31.44C49.6978 31.44 49.1218 31.592 48.5938 31.896C48.0658 32.2 47.6338 32.648 47.2978 33.24C46.9778 33.816 46.8178 34.504 46.8178 35.304C46.8178 36.104 46.9778 36.808 47.2978 37.416C47.6338 38.008 48.0658 38.464 48.5938 38.784C49.1378 39.104 49.7138 39.264 50.3218 39.264C50.9458 39.264 51.5298 39.112 52.0738 38.808C52.6178 38.488 53.0498 38.04 53.3698 37.464C53.6898 36.872 53.8498 36.168 53.8498 35.352ZM62.0034 42.168C61.3954 42.168 60.8914 41.984 60.4914 41.616C60.1074 41.232 59.9154 40.76 59.9154 40.2C59.9154 39.64 60.1074 39.176 60.4914 38.808C60.8914 38.424 61.3954 38.232 62.0034 38.232C62.5954 38.232 63.0834 38.424 63.4674 38.808C63.8514 39.176 64.0434 39.64 64.0434 40.2C64.0434 40.76 63.8514 41.232 63.4674 41.616C63.0834 41.984 62.5954 42.168 62.0034 42.168Z" fill="#3D5633"/>
</svg>
